<svg width="30" height="31" viewBox="0 0 30 31" fill="none" xmlns="http://www.w3.org/2000/svg">
<g clipPath="url(#clip0_1_370)">
<path d="M5.57662 5.75835C6.50474 6.51492 6.8563 6.46148 8.60849 6.34429L25.1272 5.35335C25.4788 5.35335 25.1863 5.00179 25.0682 4.94273L22.3241 2.95992C21.8019 2.54929 21.0988 2.08617 19.7554 2.19773L3.76443 3.3696C3.17849 3.42304 3.0613 3.71648 3.29568 3.95085L5.57662 5.75835ZM6.56755 9.61148V26.989C6.56755 27.9218 7.03162 28.2734 8.08162 28.2143L26.2363 27.1643C27.2863 27.1052 27.4082 26.4659 27.4082 25.7046V8.44429C27.4082 7.6821 27.1147 7.2771 26.4707 7.33617L7.5013 8.44429C6.79818 8.50335 6.56849 8.84929 6.56849 9.60679L6.56755 9.61148ZM24.4879 10.5387C24.6051 11.0665 24.4879 11.5887 23.9601 11.6524L23.0863 11.8287V24.6555C22.3241 25.0662 21.6266 25.3005 21.0454 25.3005C20.1079 25.3005 19.8735 25.0071 19.1751 24.1334L13.4526 15.1493V23.8409L15.2638 24.2515C15.2638 24.2515 15.2638 25.3015 13.8041 25.3015L9.77568 25.5359C9.65849 25.3015 9.77568 24.7155 10.1863 24.603L11.2363 24.3096V12.8205L9.77662 12.7034C9.65943 12.1755 9.95287 11.419 10.7676 11.3609L15.0885 11.0674L21.0454 20.1687V12.1165L19.5266 11.9402C19.4094 11.3009 19.8735 10.8321 20.4594 10.7777L24.4879 10.5387ZM2.42193 1.79367L19.0579 0.568354C21.0988 0.392104 21.6266 0.509292 22.9101 1.4421L28.2229 5.1771C29.0966 5.81648 29.3901 5.99273 29.3901 6.69117V27.1652C29.3901 28.4496 28.9213 29.2062 27.2901 29.3234L7.96349 30.4905C6.74287 30.5496 6.15693 30.3734 5.51193 29.5577L1.60068 24.4793C0.902241 23.5465 0.609741 22.848 0.609741 22.0334V3.83554C0.609741 2.78554 1.07849 1.91179 2.42099 1.7946L2.42193 1.79367Z" fill="black"/>
</g>
<defs>
<clipPath id="clip0_1_370">
<rect width="30" height="30" fill="white" transform="translate(0 0.5)"/>
</clipPath>
</defs>
</svg>
