<svg width="24" height="25" viewBox="0 0 24 25" fill="none" xmlns="http://www.w3.org/2000/svg">
<path d="M16.746 11.938C16.884 11.9049 17.028 11.9049 17.166 11.938C17.2295 11.6845 17.2401 11.4207 17.197 11.163C17.101 10.711 16.971 10.389 16.713 10.421C16.455 10.453 16.455 10.776 16.52 11.292C16.52 11.551 16.649 11.809 16.746 11.938ZM14.39 12.325C14.583 12.422 14.712 12.455 14.745 12.422C14.841 12.325 14.615 12.002 14.195 11.842C13.9761 11.75 13.7378 11.7135 13.5014 11.7358C13.265 11.7581 13.0378 11.8386 12.84 11.97C12.711 12.067 12.582 12.196 12.582 12.293C12.614 12.422 13.034 12.163 13.582 12.163C13.938 12.132 14.164 12.261 14.389 12.325M13.969 12.551C13.549 12.583 13.323 12.809 13.388 13.003C13.42 13.003 13.42 13.035 13.614 12.971C13.8727 12.8737 14.163 12.8413 14.485 12.874C14.615 12.874 14.679 12.906 14.711 12.842C14.744 12.777 14.421 12.487 13.969 12.552M16.389 13.327C16.519 13.004 15.905 12.681 15.744 13.004C15.615 13.327 16.26 13.617 16.389 13.327ZM17.068 12.391C16.713 12.391 16.713 13.133 17.068 13.133C17.423 13.133 17.423 12.391 17.068 12.391ZM7.35401 15.909C7.32101 15.909 7.09501 15.941 6.99901 15.812C6.77301 15.457 7.48301 14.908 7.12801 14.23C6.70801 13.456 5.86801 13.65 5.57801 13.972C5.22301 14.424 5.22301 15.005 5.35301 15.005C5.54601 15.037 5.54601 14.747 5.70801 14.456C5.83701 14.198 6.25601 14.101 6.48201 14.327C7.03101 14.682 6.51401 15.102 6.57901 15.586C6.61101 16.361 7.38601 16.328 7.54701 16.006C7.58001 15.973 7.54701 15.973 7.54701 15.909C7.48301 15.941 7.51501 15.844 7.35401 15.909ZM20.715 15.166C20.586 14.618 20.586 14.746 20.393 14.263C20.6018 13.97 20.703 13.6138 20.6793 13.2548C20.6556 12.8958 20.5085 12.556 20.263 12.293C19.812 11.81 18.779 11.519 18.392 11.487C18.359 11.003 18.618 8.84 17.423 7.807C18.392 6.839 18.908 5.774 18.908 4.838C18.908 3.063 16.778 2.579 14.131 3.644L13.615 3.934C13.615 3.934 12.615 2.934 12.582 2.934C9.58101 0.253998 0.156008 10.776 3.15801 13.261L3.83601 13.842C3.64244 14.3115 3.57554 14.8236 3.64201 15.327C3.77101 16.811 5.22301 18.006 6.64401 18.006C9.19401 23.976 18.585 23.976 21.006 18.135C21.038 17.941 21.426 17.037 21.426 16.263C21.393 15.488 20.974 15.165 20.716 15.165M6.61101 17.328C5.57801 17.296 4.48101 16.36 4.38401 15.295C4.12601 12.551 7.70901 11.938 8.16001 14.745C8.32201 16.037 7.93501 17.36 6.61101 17.328ZM5.80401 12.228C5.12701 12.358 4.54601 12.713 4.15801 13.261C3.93201 13.068 3.51301 12.713 3.48101 12.616C2.90001 11.518 4.12601 9.356 4.93301 8.162C7.03101 5.16 10.291 2.9 11.84 3.32C12.098 3.353 12.937 4.321 12.937 4.321C12.937 4.321 11.388 5.192 9.96701 6.354C8.06401 7.774 6.61101 9.904 5.80401 12.228ZM16.423 16.715C16.423 16.715 14.841 16.973 13.325 16.392C13.583 15.488 14.519 16.65 17.585 15.746C18.4003 15.5094 19.1658 15.1265 19.844 14.616C19.974 14.972 20.102 15.359 20.167 15.714C20.296 15.682 20.812 15.682 20.651 16.521C20.521 17.392 20.102 18.102 19.521 18.781C19.1317 19.2 18.6734 19.549 18.166 19.813C17.8748 19.9556 17.5724 20.0743 17.262 20.168C14.906 20.943 12.453 20.136 11.614 18.264C11.582 18.134 11.484 18.006 11.484 17.812C11.13 16.585 11.453 15.165 12.356 14.229C12.389 14.197 12.486 14.1 12.486 14.004C12.4741 13.9308 12.4399 13.863 12.388 13.81C12.066 13.358 11.033 12.583 11.194 11.066C11.324 10.034 12.292 9.259 13.164 9.291H13.389C13.744 9.324 14.131 9.324 14.422 9.388C14.97 9.42 15.422 9.356 15.971 8.904C16.165 8.774 16.326 8.646 16.552 8.549C16.778 8.517 17.004 8.549 17.132 8.646C17.585 8.904 17.617 9.646 17.682 10.195C17.682 10.518 17.714 11.228 17.714 11.421C17.746 11.873 17.843 11.971 18.134 12.067C18.262 12.099 18.392 12.164 18.585 12.197C19.166 12.325 19.553 12.551 19.715 12.745C19.8329 12.8576 19.912 13.0046 19.941 13.165C19.973 13.649 19.521 14.294 18.295 14.843C16.197 15.811 14.099 15.488 13.841 15.488C12.937 15.359 12.421 16.521 12.969 17.36C13.97 18.845 18.424 18.264 19.747 16.392C19.779 16.36 19.747 16.36 19.715 16.36C17.843 17.618 15.39 18.038 14.002 17.49C13.776 17.392 13.357 17.231 13.26 16.715C15.229 17.295 16.39 16.747 16.39 16.747C16.39 16.747 16.52 16.715 16.423 16.715ZM9.64501 8.129C10.42 7.258 11.291 6.483 12.13 6.096H12.163V6.128C12.13 6.258 11.969 6.483 11.937 6.678C11.937 6.709 11.937 6.709 11.969 6.709C12.453 6.354 13.389 5.967 14.164 5.935C14.196 5.935 14.196 5.935 14.196 5.967V5.999C14.066 6.096 13.938 6.225 13.841 6.354V6.387H13.873C14.422 6.387 15.196 6.58 15.681 6.838C15.713 6.871 15.681 6.935 15.648 6.871C12.55 6.128 10.194 7.678 9.64501 8.065C9.71001 8.097 9.71001 8.097 9.64501 8.129Z" fill="black"/>
</svg>
