<svg width="34" height="30" viewBox="0 0 34 30" fill="none" xmlns="http://www.w3.org/2000/svg">
<g clip-path="url(#clip0_1_364)">
<path d="M15.1756 1.1253L2.50538 6.36808C1.80081 6.6596 1.80811 7.66034 2.5172 7.94151L15.2402 12.9869C16.3581 13.4303 17.6031 13.4303 18.721 12.9869L31.4443 7.94138C32.1531 7.66048 32.1605 6.65974 31.4557 6.36808L18.7858 1.12517C17.6299 0.646915 16.3315 0.647048 15.1756 1.1253Z" fill="#FFBF00"/>
<path d="M18.1091 15.7422V28.3463C18.1091 28.9459 18.7134 29.3564 19.2707 29.1355L33.4482 23.6324C33.6063 23.5697 33.7419 23.461 33.8375 23.3203C33.933 23.1796 33.9841 23.0135 33.9841 22.8434V10.2391C33.9841 9.63956 33.3797 9.22917 32.8224 9.45004L18.6449 14.953C18.4868 15.0157 18.3511 15.1244 18.2556 15.2652C18.16 15.4059 18.109 15.5721 18.109 15.7422" fill="#26B5F8"/>
<path d="M14.7984 16.3925L10.5909 18.424L10.1636 18.6306L1.28164 22.8863C0.718648 23.1579 0 22.7476 0 22.1222V10.2919C0 10.0656 0.116078 9.87025 0.271734 9.72309C0.335544 9.65968 0.407868 9.60546 0.486625 9.56199C0.698859 9.43463 1.00167 9.40063 1.25906 9.50249L14.7276 14.8389C15.4122 15.1105 15.466 16.0699 14.7984 16.3925Z" fill="#ED3049"/>
<path d="M14.7979 16.3925L10.5904 18.424L0.271179 9.72322C0.334989 9.65981 0.407313 9.60559 0.48607 9.56212C0.698304 9.43475 1.00112 9.40075 1.25851 9.50262L14.727 14.839C15.4117 15.1106 15.4656 16.0699 14.7979 16.3925Z" fill="black" fill-opacity="0.25"/>
</g>
<defs>
<clipPath id="clip0_1_364">
<rect width="34" height="28.5547" fill="white" transform="translate(0 0.766663)"/>
</clipPath>
</defs>
</svg>
