<svg width="30" height="21" viewBox="0 0 30 21" fill="none" xmlns="http://www.w3.org/2000/svg">
<g clip-path="url(#clip0_1_349)">
<path d="M3.24035 13.6409C3.24035 14.7864 3.49184 15.6659 3.82043 16.198C4.25133 16.8949 4.89387 17.1901 5.54906 17.1901C6.3941 17.1901 7.16719 16.9803 8.65688 14.9199C9.85043 13.2685 11.2568 10.9503 12.203 9.49707L13.8055 7.03496C14.9187 5.32508 16.207 3.4243 17.6844 2.13582C18.8902 1.08418 20.1912 0.5 21.5004 0.5C23.6986 0.5 25.7924 1.77383 27.3949 4.16293C29.1486 6.77937 30 10.075 30 13.4761C30 15.4979 29.6016 16.9835 28.9234 18.1572C28.2682 19.2923 26.9912 20.4263 24.8432 20.4263V17.1901C26.6824 17.1901 27.1414 15.5 27.1414 13.5658C27.1414 10.8096 26.4988 7.75062 25.0832 5.56508C24.0784 4.01469 22.7764 3.06746 21.3441 3.06746C19.7948 3.06746 18.5481 4.23582 17.147 6.31941C16.4021 7.42625 15.6374 8.77519 14.7789 10.2972L13.8336 11.9717C11.9348 15.3383 11.4539 16.105 10.5046 17.3705C8.84051 19.5866 7.41973 20.4263 5.54906 20.4263C3.33012 20.4263 1.9268 19.4654 1.05785 18.0174C0.348399 16.8375 0 15.2893 0 13.5252L3.24035 13.6409Z" fill="#0081FB"/>
<path d="M2.55487 4.39133C4.04057 2.10148 6.1844 0.5 8.64335 0.5C10.0675 0.5 11.4832 0.921523 12.9615 2.12855C14.5784 3.4482 16.3019 5.62133 18.4521 9.20293L19.2232 10.4881C21.0842 13.5888 22.1431 15.1838 22.7628 15.9362C23.5599 16.9021 24.1181 17.1901 24.8431 17.1901C26.6824 17.1901 27.1414 15.5 27.1414 13.5658L29.9999 13.4761C29.9999 15.4979 29.6015 16.9835 28.9233 18.1572C28.2682 19.2923 26.9912 20.4263 24.8431 20.4263C23.5078 20.4263 22.3248 20.1363 21.0165 18.9021C20.0108 17.9548 18.835 16.272 17.9305 14.7593L15.2398 10.2649C13.8899 8.00938 12.6515 6.32773 11.9349 5.56602C11.1641 4.74711 10.1729 3.75805 8.59132 3.75805C7.31128 3.75805 6.22413 4.65641 5.3144 6.03031L2.55487 4.39133Z" fill="url(#paint0_linear_1_349)"/>
<path d="M8.59125 3.75805C7.31121 3.75805 6.22406 4.65641 5.31434 6.03031C4.02809 7.97188 3.24035 10.8637 3.24035 13.6409C3.24035 14.7864 3.49184 15.6659 3.82043 16.198L1.05785 18.0174C0.348399 16.8375 0 15.2893 0 13.5252C0 10.317 0.880547 6.97344 2.55492 4.39133C4.04063 2.10148 6.18445 0.5 8.6434 0.5L8.59125 3.75805Z" fill="url(#paint1_linear_1_349)"/>
</g>
<defs>
<linearGradient id="paint0_linear_1_349" x1="383.438" y1="1115.06" x2="2446.63" y2="1219.26" gradientUnits="userSpaceOnUse">
<stop stop-color="#0064E1"/>
<stop offset="0.4" stop-color="#0064E1"/>
<stop offset="0.83" stop-color="#0073EE"/>
<stop offset="1" stop-color="#0082FB"/>
</linearGradient>
<linearGradient id="paint1_linear_1_349" x1="469.466" y1="1450.63" x2="469.466" y2="689.057" gradientUnits="userSpaceOnUse">
<stop stop-color="#0082FB"/>
<stop offset="1" stop-color="#0064E0"/>
</linearGradient>
<clipPath id="clip0_1_349">
<rect width="30" height="20.0391" fill="white" transform="translate(0 0.5)"/>
</clipPath>
</defs>
</svg>
