<svg width="30" height="29" viewBox="0 0 30 29" fill="none" xmlns="http://www.w3.org/2000/svg">
<g clip-path="url(#clip0_1_354)">
<path d="M23.4756 15.1801C19.8722 15.1801 16.9512 18.1012 16.9512 21.7047C16.9512 25.3082 19.8722 28.2294 23.4756 28.2294C27.079 28.2294 30 25.3081 30 21.7047C30 18.1012 27.079 15.1801 23.4756 15.1801ZM6.52441 15.1807C2.92113 15.1807 0 18.1012 0 21.7047C0 25.3082 2.92113 28.2294 6.52441 28.2294C10.1279 28.2294 13.0492 25.3081 13.0492 21.7047C13.0492 18.1012 10.1279 15.1807 6.52441 15.1807ZM21.5244 7.02441C21.5244 10.6279 18.6033 13.5494 15.0001 13.5494C11.3966 13.5494 8.47559 10.6279 8.47559 7.02441C8.47559 3.42125 11.3965 0.5 15 0.5C18.6032 0.5 21.5242 3.42148 21.5242 7.0243" fill="#F06A6A"/>
</g>
<defs>
<clipPath id="clip0_1_354">
<rect width="30" height="27.7734" fill="white" transform="translate(0 0.5)"/>
</clipPath>
</defs>
</svg>
