<svg width="34" height="35" viewBox="0 0 34 35" fill="none" xmlns="http://www.w3.org/2000/svg">
<path d="M20.451 12.7315H13.7176C11.2066 12.7315 8.79851 13.729 7.02299 15.5045C5.24747 17.28 4.25 19.6881 4.25 22.1991C4.25 24.7101 5.24747 27.1182 7.02299 28.8937C8.79851 30.6692 11.2066 31.6667 13.7176 31.6667H20.451C22.962 31.6667 25.3701 30.6692 27.1456 28.8937C28.9211 27.1182 29.9186 24.7101 29.9186 22.1991C29.9186 19.6881 28.9211 17.28 27.1456 15.5045C25.3701 13.729 22.962 12.7315 20.451 12.7315Z" fill="#3DD2E6"/>
<path d="M4.25 10.4166C4.25 8.53803 4.99628 6.73636 6.32466 5.40797C7.65304 4.07959 9.45472 3.33331 11.3333 3.33331H18.241C19.1482 3.33313 20.0466 3.51166 20.8849 3.85872C21.7231 4.20578 22.4848 4.71457 23.1264 5.35602C23.768 5.99748 24.2769 6.75903 24.6241 7.5972C24.9714 8.43537 25.1501 9.33373 25.1501 10.241V12.8009C25.1501 14.0443 24.9052 15.2756 24.4293 16.4243C23.9534 17.5731 23.2559 18.6168 22.3766 19.496C21.4973 20.3752 20.4534 21.0725 19.3046 21.5482C18.1558 22.0239 16.9245 22.2687 15.6811 22.2685H4.25V10.4166Z" fill="#0265FF"/>
</svg>
